<?xml version="1.0" encoding="UTF-8" standalone="no"?>
<!-- Created with Inkscape (http://www.inkscape.org/) -->

<svg
   xmlns:dc="http://purl.org/dc/elements/1.1/"
   xmlns:cc="http://creativecommons.org/ns#"
   xmlns:rdf="http://www.w3.org/1999/02/22-rdf-syntax-ns#"
   xmlns:svg="http://www.w3.org/2000/svg"
   xmlns="http://www.w3.org/2000/svg"
   xmlns:sodipodi="http://sodipodi.sourceforge.net/DTD/sodipodi-0.dtd"
   xmlns:inkscape="http://www.inkscape.org/namespaces/inkscape"
   width="48px"
   height="48px"
   id="svg4534"
   version="1.1"
   inkscape:version="0.48.1 r9760"
   sodipodi:docname="barabas-search.svg">
  <defs
     id="defs4536" />
  <sodipodi:namedview
     id="base"
     pagecolor="#ffffff"
     bordercolor="#666666"
     borderopacity="1.0"
     inkscape:pageopacity="0.0"
     inkscape:pageshadow="2"
     inkscape:zoom="9.7963752"
     inkscape:cx="0.68154045"
     inkscape:cy="30.822831"
     inkscape:current-layer="layer1"
     showgrid="true"
     inkscape:grid-bbox="true"
     inkscape:document-units="px"
     inkscape:window-width="1920"
     inkscape:window-height="1023"
     inkscape:window-x="0"
     inkscape:window-y="32"
     inkscape:window-maximized="1" />
  <metadata
     id="metadata4539">
    <rdf:RDF>
      <cc:Work
         rdf:about="">
        <dc:format>image/svg+xml</dc:format>
        <dc:type
           rdf:resource="http://purl.org/dc/dcmitype/StillImage" />
        <dc:title />
      </cc:Work>
    </rdf:RDF>
  </metadata>
  <g
     id="layer1"
     inkscape:label="Layer 1"
     inkscape:groupmode="layer">
    <path
       inkscape:connector-curvature="0"
       d="m 1.1602631,25.470191 c 0.03485,0.713405 0.164867,1.42248 0.271962,2.122764 1.287385,8.403147 7.481517,15.58051 16.2081209,17.804033 1.861816,0.474344 3.694731,0.734344 5.530826,0.72042 L 23.113652,38.97802 C 21.86678,38.98877 20.636611,38.82091 19.369863,38.498196 11.543309,36.503946 6.8627401,28.559794 8.8569351,20.733273 9.5015241,18.20351 10.927946,16.063607 12.714554,14.242325 L 20.246644,20.7265 20.100093,2.5380586 0.97673213,2.6921426 7.4025471,9.0152352 c -2.671806,2.7303198 -4.480474,6.2054768 -5.444403,9.9886618 -0.555895,2.181603 -0.907059,4.32617 -0.797881,6.466294 z"
       id="rect4492-7-7"
       style="color:#000000;fill:#bebebe;fill-opacity:1;fill-rule:nonzero;stroke:none;stroke-width:0.99999970000000005;marker:none;visibility:visible;display:block;overflow:visible;enable-background:new" />
    <path
       inkscape:connector-curvature="0"
       d="m 47.541201,23.137254 c -0.0291,-0.713663 -0.1534,-1.423763 -0.254851,-2.124887 C 46.066713,12.599121 39.930611,5.3720837 31.222205,3.0783217 29.364272,2.5889927 27.53351,2.3142327 25.697364,2.3133617 l 0,7.13962 c 1.246917,-7.07e-4 2.475693,0.177063 3.7398,0.509973 7.810228,2.0572443 12.426638,10.0388503 10.369448,17.8490493 -0.66495,2.524488 -2.108567,4.65283 -3.909792,6.459657 l -7.479601,-6.544652 0,18.189032 19.123982,0 -6.374661,-6.374661 c 2.693717,-2.708704 4.530327,-6.169175 5.524706,-9.944471 0.573454,-2.177053 0.941886,-4.318721 0.849955,-6.459655 z"
       id="path14424"
       style="color:#000000;fill:#bebebe;fill-opacity:1;fill-rule:nonzero;stroke:none;stroke-width:0.99999970000000005;marker:none;visibility:visible;display:block;overflow:visible;enable-background:new" />
    <g
       id="g5434"
       style="opacity:1">
      <path
         sodipodi:nodetypes="ccccccc"
         inkscape:connector-curvature="0"
         id="path4656"
         d="m 12.642765,13.108511 12.162328,0 19.906395,0 0,22.166579 -32.774874,0 -9.2168978,-11.136908 z"
         style="fill:#f0f0f0;fill-opacity:0;stroke:#ffec73;stroke-width:5;stroke-linecap:butt;stroke-linejoin:round;stroke-miterlimit:4;stroke-opacity:1;stroke-dasharray:none" />
      <flowRoot
         transform="translate(-3.1001784,-8.3878098)"
         style="font-size:13px;font-style:normal;font-variant:normal;font-weight:bold;font-stretch:normal;text-align:start;line-height:125%;letter-spacing:0px;word-spacing:0px;writing-mode:lr-tb;text-anchor:start;fill:#000000;fill-opacity:1;stroke:none;font-family:Verdana;-inkscape-font-specification:Verdana Bold;opacity:0"
         id="flowRoot5426"
         xml:space="preserve"><flowRegion
           id="flowRegion5428"><rect
             style="font-style:normal;font-variant:normal;font-weight:bold;font-stretch:normal;fill:#000000;fill-opacity:1;stroke:none;font-family:Verdana;-inkscape-font-specification:Verdana Bold"
             y="19.127586"
             x="17.323448"
             height="27.399704"
             width="29.706602"
             id="rect5430" /></flowRegion><flowPara
           id="flowPara5432"
           style="font-size:20px;font-style:normal;font-variant:normal;font-weight:bold;font-stretch:normal;font-family:Verdana;-inkscape-font-specification:Verdana Bold">Ba</flowPara></flowRoot>    </g>
  </g>
</svg>
